HIERARCHY
ROOT pelvis
{
  OFFSET 0 100 0
  CHANNELS 6 Xposition Yposition Zposition Zrotation Xrotation Yrotation
  JOINT pelvis_right_femur
  {
    OFFSET -10.78128 -3.44521 -0.5502486
    CHANNELS 3 Zrotation Xrotation Yrotation
    JOINT right_femur_tibia
    {
      OFFSET -0.8047443 -44.0398 -0.1307829
      CHANNELS 3 Zrotation Xrotation Yrotation
      JOINT right_tibia_foot
      {
        OFFSET 3.006224 -47.83518 -5
        CHANNELS 3 Zrotation Xrotation Yrotation
        End Site
        {
          OFFSET 0 -5 15
        }
      }
    }
  }
  JOINT pelvis_left_femur
  {
    OFFSET 10.78128 -3.44521 -0.5502486
    CHANNELS 3 Zrotation Xrotation Yrotation
    JOINT left_femur_tibia
    {
      OFFSET 0.8047443 -44.0398 -0.1307829
      CHANNELS 3 Zrotation Xrotation Yrotation
      JOINT left_tibia_foot
      {
        OFFSET -4.370144 -48.10324 -4.275266
        CHANNELS 3 Zrotation Xrotation Yrotation
        End Site
        {
          OFFSET 0 -5 15
        }
      }
    }
  }
  JOINT pelvis_spine1
  {
    OFFSET 0 6.468898 -3.129235
    CHANNELS 3 Zrotation Xrotation Yrotation
    JOINT spine1
    {
      OFFSET 0 23.15396 4.99043
      CHANNELS 3 Zrotation Xrotation Yrotation
      JOINT spine2
      {
        OFFSET 0 20.79997 -5.064912
        CHANNELS 3 Zrotation Xrotation Yrotation
        JOINT neck
        {
          OFFSET 0 14.38658 9.616178
          CHANNELS 3 Zrotation Xrotation Yrotation
          End Site
          {
            OFFSET 0 20 0
          }
        }
      }
      JOINT right_manubrium
      {
        OFFSET -5.722621 16.35077 3.967754
        CHANNELS 3 Zrotation Xrotation Yrotation
        JOINT right_clavicle
        {
          OFFSET -13.16364 1.694482 -4.693211
          CHANNELS 3 Zrotation Xrotation Yrotation
          JOINT right_humerus
          {
            OFFSET -28.5034 -0.3100689 -2.792744
            CHANNELS 3 Zrotation Xrotation Yrotation
            JOINT right_radius
            {
              OFFSET -25.15693 0.02248979 -1.271978
              CHANNELS 3 Zrotation Xrotation Yrotation
              End Site
              {
                OFFSET -15 0 0
              }
            }
          }
        }
      }
      JOINT left_manubrium
      {
        OFFSET 5.722621 16.35077 3.967754
        CHANNELS 3 Zrotation Xrotation Yrotation
        JOINT left_clavicle
        {
          OFFSET 13.16364 1.694482 -4.693211
          CHANNELS 3 Zrotation Xrotation Yrotation
          JOINT left_humerus
          {
            OFFSET 29.39168 -1.063119 -2.237045
            CHANNELS 3 Zrotation Xrotation Yrotation
            JOINT left_radius
            {
              OFFSET 24.59957 -0.9528479 0.9047498
              CHANNELS 3 Zrotation Xrotation Yrotation
              End Site
              {
                OFFSET 15 -0 -0
              }
            }
          }
        }
      }
    }
  }
}
MOTION
Frames: 15
Frame Time: 0.0416666666667
0 103.5113 0 0.6766885 0.4081914 -0.05596545 4.481835 -20.29124 10.22234 -0 34.94954 -0 -5.050217 -16.25885 -3.161378 -7.404316 9.812397 -23.28426 -0 5.62566 -0 11.99468 -16.30617 28.06899 -3.764624 -3.199804 5.114323 2.8822 9.618298 -7.584079 1.713778 21.56095 6.611628 2.788406 -25.69673 10.14624 6.139018 -20.33535 11.54606 85.51332 36.44362 -18.40043 -0 0 16.83593 -6.05057 8.155503 4.353672 5.999563 -19.02784 -0.999792 -93.73112 24.6698 22.14297 0 0 -15.26015 11.2989 15.48367 1.556233
0.3577429 103.8953 1.731204 0.452674 0.3837339 -0.06764604 4.549929 -21.85931 9.453986 -0 33.6942 -0 -5.273268 -14.9459 -2.912259 -7.104848 10.29736 -22.53538 -0 5.689652 -0 10.86554 -17.412 26.97957 -3.632723 -2.844599 4.827091 2.917817 9.612432 -7.676387 1.631033 21.50973 6.781999 2.907058 -25.76865 10.10791 5.90353 -20.10673 11.54877 85.81906 35.69729 -18.82494 -0 0 16.3072 -6.778029 8.165618 4.558472 6.127986 -19.47809 -1.207315 -93.29192 24.80835 21.51689 0 0 -15.96409 10.91155 15.5477 1.872627
0.7090676 104.186 3.834902 0.02803085 1.152454 -0.008401661 5.233847 -25.26919 8.791586 -0 30.31377 -0 -5.447474 -12.44664 -2.453383 -6.750704 10.98251 -21.37171 -0 5.743333 -0 10.12806 -19.0583 25.91705 -3.522127 -2.449103 4.575014 3.18988 9.633283 -7.941629 1.596278 21.04227 7.008018 3.116558 -26.38439 10.21046 5.705509 -19.79776 11.54363 86.06022 35.3666 -19.39049 -0 0 15.65499 -7.37007 8.347839 4.740516 6.564642 -20.17327 -1.064931 -92.59642 23.96255 20.5769 0 0 -16.98023 11.54656 15.12482 0.9525067
1.04074 104.3721 6.34006 -0.4096193 2.013189 0.1534263 5.995772 -28.50708 8.202013 -0 26.80177 -0 -5.659997 -10.1223 -2.049646 -6.391145 11.80702 -20.2914 -0 5.981129 -0 9.113259 -20.63316 24.70747 -3.378807 -2.099725 4.2869 3.47547 9.52786 -8.1954 1.563246 20.57882 7.219907 3.318203 -26.97573 10.29719 5.53172 -19.40298 11.49659 86.28241 35.14405 -19.97217 -0 0 14.9812 -7.757046 8.527789 4.841982 6.986839 -20.75132 -0.856142 -92.04008 23.36176 19.74211 0 0 -17.9799 11.86983 14.72747 0.3555701
1.34225 104.4739 9.319233 -0.8840933 2.998942 0.4492349 6.877766 -31.61981 7.668605 -0 23.15923 -0 -5.92002 -7.900108 -1.663485 -6.014016 12.80019 -19.1913 -0 6.530818 -0 7.805223 -22.00794 23.23006 -3.160317 -1.807784 3.953112 3.761384 9.320155 -8.454486 1.501205 20.09713 7.448583 3.519678 -27.53653 10.3557 5.387281 -18.90365 11.42273 86.55521 35.0858 -20.64056 -0 0 14.17149 -7.971171 8.737735 4.887961 7.389698 -21.2792 -0.6022733 -91.46414 22.90691 18.87163 0 0 -19.21391 12.01104 14.25293 -0.04172855
1.607733 104.5252 12.84545 -1.421283 3.99824 0.9007008 7.840981 -34.32752 7.174427 -0 19.70102 -0 -6.263898 -5.905143 -1.312775 -5.591929 13.92709 -18.07403 -0 7.676468 -0 5.966494 -22.98368 21.29866 -2.799339 -1.560836 3.547241 4.012717 9.014175 -8.702757 1.388882 19.63847 7.703422 3.714674 -28.00272 10.35954 5.262144 -18.29648 11.32931 86.91969 35.11191 -21.40649 -0 0 13.21567 -8.0573 8.968556 4.902803 7.704555 -21.72442 -0.3741969 -90.89415 22.73835 18.01916 0 0 -20.62812 11.78498 13.72969 -0.0123879
1.841145 104.5867 16.97806 -2.029561 4.86213 1.50031 8.817459 -36.21022 6.729174 -0 16.8429 -0 -6.719549 -4.326901 -1.021739 -5.11687 15.02381 -16.9557 -0 9.830316 -0 3.554472 -23.19434 18.86289 -2.231525 -1.359374 3.083971 4.188623 8.656111 -8.913173 1.218101 19.25391 7.970248 3.880143 -28.31069 10.28806 5.142238 -17.61789 11.23402 87.40298 35.14506 -22.22429 -0 0 12.14136 -8.06616 9.211118 4.923775 7.845984 -22.04122 -0.2494262 -90.35858 22.86396 17.26164 0 0 -22.05574 11.17899 13.15169 0.4953131
2.060532 104.7555 21.73875 -2.68628 5.410003 2.191355 9.702635 -36.76245 6.358109 -0 15.02992 -0 -7.304259 -3.378879 -0.8229837 -4.596208 15.77229 -15.86763 -0 13.51756 -0 0.7486454 -22.22152 16.06867 -1.422927 -1.201449 2.624449 4.253285 8.332017 -9.049808 1.00062 19.00071 8.208098 3.983746 -28.41198 10.12896 5.015682 -16.94413 11.16446 87.9896 35.10534 -22.98264 -0 0 11.04083 -8.062822 9.456818 4.996523 7.721781 -22.17043 -0.2994655 -89.92908 23.19135 16.73748 0 0 -23.17267 10.29854 12.50989 1.40684
2.297074 105.1656 27.08667 -3.311334 5.471442 2.859115 10.34739 -35.52159 6.072027 -0 14.55933 -0 -8.012552 -3.214164 -0.7421079 -4.064988 15.71406 -14.82941 -0 19.23738 -0 -2.016105 -19.78156 13.29066 -0.4182982 -1.07824 2.282913 4.186811 8.159434 -9.074908 0.7680732 18.93365 8.354693 3.995998 -28.283 9.877437 4.882488 -16.37902 11.15673 88.60981 34.94639 -23.52373 -0 0 10.04649 -8.137214 9.705299 5.170394 7.267577 -22.07454 -0.564181 -89.68953 23.5289 16.60017 0 0 -23.60101 9.364278 11.8123 2.508219
2.585093 105.9658 32.90123 -3.760016 4.957559 3.353848 10.5767 -32.26403 5.837512 -0 15.33463 -0 -8.797342 -3.833607 -0.7739921 -3.592613 14.34756 -13.82411 -0 27.18293 -0 -4.209091 -15.98072 10.99874 0.6154359 -0.968565 2.208828 3.996284 8.247489 -8.959866 0.5622348 19.09021 8.346833 3.909478 -27.92963 9.530863 4.768412 -16.01985 11.24635 89.13854 34.69982 -23.69517 -0 0 9.285052 -8.401358 9.97071 5.486809 6.494114 -21.77793 -1.020499 -89.68595 23.66071 16.93918 0 0 -23.10102 8.618716 11.11048 3.524044
2.943765 107.2662 38.98571 -3.85542 3.920334 3.553422 10.24579 -27.17751 5.567305 -0 16.70746 -0 -9.552375 -5.047356 -0.8615411 -3.264998 11.30807 -12.79353 -0 36.88628 -0 -5.476036 -11.45458 9.530282 1.395825 -0.8408435 2.536457 3.715093 8.637788 -8.695107 0.4153397 19.47635 8.152487 3.752967 -27.37564 9.082797 4.724251 -15.91571 11.45279 89.41714 34.48646 -23.41124 -0 0 8.824455 -8.972471 10.27735 5.968609 5.520891 -21.3925 -1.572524 -89.86875 23.46775 17.68743 0 0 -21.78621 8.190337 10.4965 4.250812
3.360428 109.0651 45.10344 -3.46346 2.549489 3.435331 9.3237 -20.88174 5.151692 -0 17.62327 -0 -10.11856 -6.540055 -0.9041322 -3.127058 6.559859 -11.66952 -0 47.00487 -0 -5.799076 -7.223786 8.97814 1.623661 -0.6668097 3.313007 3.385818 9.261528 -8.292548 0.3326896 20.05733 7.796115 3.584462 -26.64283 8.528219 4.793834 -16.04994 11.76338 89.29237 34.45742 -22.6681 -0 0 8.664708 -9.93554 10.63946 6.615893 4.561674 -21.08875 -2.08103 -90.08984 23.01616 18.60485 0 0 -20.17483 8.010244 10.059 4.662388
3.791333 111.2029 51.04193 -2.581315 1.091112 3.097958 7.957783 -14.22743 4.522528 -0 17.13387 -0 -10.3404 -8.021248 -0.8136502 -3.11305 0.4837543 -10.41619 -0 55.511 -0 -5.435582 -4.269098 9.264549 1.155383 -0.4369341 4.4418 3.034325 9.953309 -7.777257 0.2941409 20.75934 7.353107 3.456935 -25.74111 7.884874 4.955381 -16.37001 12.1262 88.66517 34.67405 -21.486 -0 0 8.799514 -11.29491 11.03298 7.408982 3.850179 -20.99881 -2.422529 -90.1894 22.52048 19.39628 0 0 -18.93779 7.86569 9.830784 4.900228
4.186721 113.384 56.67375 -1.390016 -0.2580296 2.70247 6.467115 -7.964968 3.717567 -0 14.98522 -0 -10.1557 -9.368594 -0.5859232 -3.023785 -6.220745 -9.040094 -0 60.33208 -0 -4.732554 -3.048932 10.26124 0.1398487 -0.1578286 5.685171 2.655778 10.52486 -7.176049 0.2758662 21.48366 6.910173 3.377295 -24.68319 7.213997 5.08266 -16.84688 12.46059 87.53368 35.0113 -19.83317 -0 0 9.301925 -12.94812 11.3832 8.315835 3.537778 -21.1072 -2.542518 -90.11771 22.1867 19.90129 0 0 -18.45334 7.559713 9.769926 5.153344
4.524537 115.2662 61.97912 -0.2225396 -1.400843 2.378002 5.240105 -2.494958 2.890048 -0 11.78797 -0 -9.642315 -10.66798 -0.3109733 -2.585507 -12.77624 -7.566266 -0 60.1166 -0 -3.965196 -3.289622 11.82991 -1.009692 0.1638051 6.744748 2.229558 10.84889 -6.517728 0.2704271 22.12873 6.523193 3.295802 -23.51614 6.61397 4.980176 -17.50861 12.68324 86.0065 35.18624 -17.62841 -0 0 10.33619 -14.71884 11.5879 9.304367 3.626026 -21.23044 -2.471395 -89.98579 22.06837 20.20489 0 0 -18.52367 7.044187 9.78655 5.527783
